C:/Program Files/Krita (x64)/bin/ffmpeg.exe -hide_banner -y -y -r 10 -start_number 0 -start_number_range 1 -i C:/Projects/thefirey33-new-site/src/lib/assets/imgs/kare%04d.png -i C:/Projects/thefirey33-new-site/src/lib/assets/imgs/KritaTempPalettegen_%06d.png -lavfi [0:v][1:v]paletteuse=dither=sierra2_4a:diff_mode=none -f gif -loop 0 -gifflags +transdiff C:/Projects/thefirey33-new-site/src/lib/assets/imgs/website_guy_jam.gif
=====================================================
Input #0, image2, from 'C:/Projects/thefirey33-new-site/src/lib/assets/imgs/kare%04d.png':
  Duration: 00:00:00.36, start: 0.000000, bitrate: N/A
  Stream #0:0: Video: png, rgba(pc, gbr/unknown/unknown), 32x32 [SAR 11811:11811 DAR 1:1], 25 fps, 25 tbr, 25 tbn
Input #1, image2, from 'C:/Projects/thefirey33-new-site/src/lib/assets/imgs/KritaTempPalettegen_%06d.png':
  Duration: 00:00:00.04, start: 0.000000, bitrate: N/A
  Stream #1:0: Video: png, rgba(pc, gbr/unknown/unknown), 16x16 [SAR 1:1 DAR 1:1], 25 fps, 25 tbr, 25 tbn
Stream mapping:
  Stream #0:0 (png) -> paletteuse
  Stream #1:0 (png) -> paletteuse
  paletteuse:default -> Stream #0:0 (gif)
Press [q] to stop, [?] for help
Output #0, gif, to 'C:/Projects/thefirey33-new-site/src/lib/assets/imgs/website_guy_jam.gif':
  Metadata:
    encoder         : Lavf61.7.100
  Stream #0:0: Video: gif, pal8(pc, gbr/unknown/unknown, progressive), 32x32 [SAR 1:1 DAR 1:1], q=2-31, 200 kb/s, 10 fps, 100 tbn
      Metadata:
        encoder         : Lavc61.19.101 gif
[out#0/gif @ 000001cec941ab80] video:2KiB audio:0KiB subtitle:0KiB other streams:0KiB global headers:0KiB muxing overhead: 0.964320%
frame=    9 fps=0.0 q=-0.0 Lsize=       2KiB time=00:00:00.90 bitrate=  18.6kbits/s speed=71.9x    
